<svg xmlns="http://www.w3.org/2000/svg" xmlns:xlink="http://www.w3.org/1999/xlink" width="500" zoomAndPan="magnify" viewBox="0 0 375 374.999991" height="500" preserveAspectRatio="xMidYMid meet" version="1.0"><defs><g/></defs><g fill="#231f20" fill-opacity="1"><g transform="translate(94.448348, 195.749987)"><g><path d="M 8.609375 0.359375 C 7.347656 0.359375 6.25 0.234375 5.3125 -0.015625 C 4.375 -0.265625 3.59375 -0.578125 2.96875 -0.953125 C 2.351562 -1.335938 1.890625 -1.773438 1.578125 -2.265625 C 1.273438 -2.765625 1.125 -3.269531 1.125 -3.78125 C 1.125 -4.539062 1.335938 -5.117188 1.765625 -5.515625 C 2.191406 -5.910156 2.804688 -6.109375 3.609375 -6.109375 C 3.804688 -6.109375 3.988281 -6.097656 4.15625 -6.078125 C 4.332031 -6.054688 4.484375 -6.023438 4.609375 -5.984375 C 4.753906 -5.941406 4.894531 -5.910156 5.03125 -5.890625 C 4.957031 -5.734375 4.890625 -5.582031 4.828125 -5.4375 C 4.785156 -5.289062 4.742188 -5.128906 4.703125 -4.953125 C 4.660156 -4.785156 4.640625 -4.597656 4.640625 -4.390625 C 4.640625 -3.722656 4.972656 -3.144531 5.640625 -2.65625 C 6.316406 -2.164062 7.285156 -1.921875 8.546875 -1.921875 C 9.398438 -1.921875 10.125 -2.019531 10.71875 -2.21875 C 11.3125 -2.425781 11.800781 -2.691406 12.1875 -3.015625 C 12.570312 -3.347656 12.851562 -3.71875 13.03125 -4.125 C 13.21875 -4.53125 13.3125 -4.945312 13.3125 -5.375 C 13.3125 -5.945312 13.125 -6.472656 12.75 -6.953125 C 12.375 -7.441406 11.738281 -7.910156 10.84375 -8.359375 L 6.84375 -10.375 C 5.414062 -11.09375 4.394531 -11.898438 3.78125 -12.796875 C 3.175781 -13.691406 2.875 -14.65625 2.875 -15.6875 C 2.875 -16.625 3.09375 -17.515625 3.53125 -18.359375 C 3.96875 -19.210938 4.613281 -19.96875 5.46875 -20.625 C 6.320312 -21.289062 7.363281 -21.816406 8.59375 -22.203125 C 9.820312 -22.585938 11.222656 -22.78125 12.796875 -22.78125 C 14.054688 -22.78125 15.15625 -22.65625 16.09375 -22.40625 C 17.03125 -22.164062 17.804688 -21.84375 18.421875 -21.4375 C 19.046875 -21.03125 19.507812 -20.582031 19.8125 -20.09375 C 20.125 -19.601562 20.28125 -19.101562 20.28125 -18.59375 C 20.28125 -17.78125 20.046875 -17.1875 19.578125 -16.8125 C 19.109375 -16.4375 18.484375 -16.25 17.703125 -16.25 C 17.335938 -16.25 17.039062 -16.28125 16.8125 -16.34375 C 16.59375 -16.414062 16.460938 -16.460938 16.421875 -16.484375 C 16.484375 -16.609375 16.546875 -16.753906 16.609375 -16.921875 C 16.648438 -17.054688 16.691406 -17.210938 16.734375 -17.390625 C 16.773438 -17.566406 16.796875 -17.765625 16.796875 -17.984375 C 16.796875 -18.640625 16.453125 -19.210938 15.765625 -19.703125 C 15.085938 -20.203125 14.117188 -20.453125 12.859375 -20.453125 C 12.023438 -20.453125 11.304688 -20.347656 10.703125 -20.140625 C 10.097656 -19.941406 9.601562 -19.675781 9.21875 -19.34375 C 8.832031 -19.007812 8.546875 -18.632812 8.359375 -18.21875 C 8.179688 -17.800781 8.09375 -17.378906 8.09375 -16.953125 C 8.09375 -16.398438 8.28125 -15.890625 8.65625 -15.421875 C 9.03125 -14.953125 9.664062 -14.492188 10.5625 -14.046875 L 14.59375 -12 C 16 -11.269531 17.003906 -10.457031 17.609375 -9.5625 C 18.222656 -8.664062 18.53125 -7.707031 18.53125 -6.6875 C 18.53125 -5.75 18.304688 -4.851562 17.859375 -4 C 17.410156 -3.144531 16.765625 -2.394531 15.921875 -1.75 C 15.078125 -1.113281 14.035156 -0.601562 12.796875 -0.21875 C 11.554688 0.164062 10.160156 0.359375 8.609375 0.359375 Z M 8.609375 0.359375 "/></g></g></g><g fill="#231f20" fill-opacity="1"><g transform="translate(114.091362, 195.749987)"><g><path d="M 7.421875 0.359375 C 5.503906 0.359375 4.023438 -0.171875 2.984375 -1.234375 C 1.953125 -2.304688 1.4375 -3.804688 1.4375 -5.734375 C 1.4375 -6.984375 1.648438 -8.1875 2.078125 -9.34375 C 2.503906 -10.5 3.109375 -11.519531 3.890625 -12.40625 C 4.671875 -13.289062 5.613281 -13.992188 6.71875 -14.515625 C 7.832031 -15.035156 9.070312 -15.296875 10.4375 -15.296875 C 12.414062 -15.296875 13.910156 -14.734375 14.921875 -13.609375 C 15.941406 -12.492188 16.453125 -10.96875 16.453125 -9.03125 C 16.453125 -8.082031 16.316406 -7.15625 16.046875 -6.25 C 15.773438 -5.34375 15.394531 -4.5 14.90625 -3.71875 C 18 -3.84375 19.910156 -5.320312 20.640625 -8.15625 L 20.671875 -8.28125 L 22.5 -7.234375 L 22.46875 -7.109375 C 21.976562 -5.179688 21.035156 -3.785156 19.640625 -2.921875 C 18.253906 -2.054688 16.550781 -1.625 14.53125 -1.625 C 14.289062 -1.625 14.054688 -1.628906 13.828125 -1.640625 C 13.609375 -1.648438 13.394531 -1.671875 13.1875 -1.703125 C 12.4375 -1.054688 11.585938 -0.550781 10.640625 -0.1875 C 9.691406 0.175781 8.617188 0.359375 7.421875 0.359375 Z M 7.84375 -1.921875 C 8.132812 -1.921875 8.425781 -2.023438 8.71875 -2.234375 C 9.007812 -2.453125 9.300781 -2.742188 9.59375 -3.109375 C 9.1875 -3.515625 8.984375 -3.941406 8.984375 -4.390625 C 8.984375 -4.941406 9.175781 -5.359375 9.5625 -5.640625 C 9.945312 -5.929688 10.382812 -6.078125 10.875 -6.078125 C 11.050781 -6.628906 11.207031 -7.226562 11.34375 -7.875 C 11.476562 -8.53125 11.546875 -9.234375 11.546875 -9.984375 C 11.546875 -11.046875 11.441406 -11.804688 11.234375 -12.265625 C 11.035156 -12.722656 10.648438 -12.953125 10.078125 -12.953125 C 9.609375 -12.953125 9.148438 -12.726562 8.703125 -12.28125 C 8.253906 -11.832031 7.847656 -11.234375 7.484375 -10.484375 C 7.117188 -9.742188 6.820312 -8.894531 6.59375 -7.9375 C 6.375 -6.976562 6.265625 -5.972656 6.265625 -4.921875 C 6.265625 -3.921875 6.390625 -3.171875 6.640625 -2.671875 C 6.890625 -2.171875 7.289062 -1.921875 7.84375 -1.921875 Z M 7.84375 -1.921875 "/></g></g></g><g fill="#231f20" fill-opacity="1"><g transform="translate(131.46293, 195.749987)"><g><path d="M 9.15625 0.359375 C 6.71875 0.359375 4.820312 -0.210938 3.46875 -1.359375 C 2.113281 -2.503906 1.4375 -4.109375 1.4375 -6.171875 C 1.4375 -7.472656 1.660156 -8.675781 2.109375 -9.78125 C 2.554688 -10.894531 3.179688 -11.859375 3.984375 -12.671875 C 4.785156 -13.484375 5.734375 -14.125 6.828125 -14.59375 C 7.929688 -15.0625 9.125 -15.296875 10.40625 -15.296875 C 11.1875 -15.296875 11.894531 -15.1875 12.53125 -14.96875 C 13.175781 -14.757812 13.734375 -14.46875 14.203125 -14.09375 C 14.671875 -13.71875 15.035156 -13.28125 15.296875 -12.78125 C 15.554688 -12.28125 15.6875 -11.742188 15.6875 -11.171875 C 15.6875 -10.484375 15.492188 -9.910156 15.109375 -9.453125 C 14.722656 -8.992188 14.082031 -8.765625 13.1875 -8.765625 C 12.757812 -8.765625 12.414062 -8.796875 12.15625 -8.859375 C 12.007812 -8.898438 11.882812 -8.941406 11.78125 -8.984375 C 11.84375 -9.179688 11.90625 -9.394531 11.96875 -9.625 C 12.007812 -9.820312 12.050781 -10.03125 12.09375 -10.25 C 12.132812 -10.476562 12.15625 -10.695312 12.15625 -10.90625 C 12.15625 -11.613281 12.007812 -12.125 11.71875 -12.4375 C 11.4375 -12.757812 11.03125 -12.921875 10.5 -12.921875 C 9.988281 -12.921875 9.476562 -12.757812 8.96875 -12.4375 C 8.46875 -12.125 8.019531 -11.675781 7.625 -11.09375 C 7.238281 -10.519531 6.914062 -9.835938 6.65625 -9.046875 C 6.394531 -8.265625 6.265625 -7.40625 6.265625 -6.46875 C 6.265625 -5.125 6.613281 -4.03125 7.3125 -3.1875 C 8.007812 -2.34375 9.09375 -1.921875 10.5625 -1.921875 C 11.5625 -1.921875 12.5 -2.085938 13.375 -2.421875 C 14.25 -2.765625 15.046875 -3.226562 15.765625 -3.8125 C 16.492188 -4.40625 17.132812 -5.085938 17.6875 -5.859375 C 18.25 -6.628906 18.703125 -7.4375 19.046875 -8.28125 L 20.859375 -7.234375 C 20.546875 -6.421875 20.144531 -5.65625 19.65625 -4.9375 C 19.175781 -4.226562 18.5 -3.445312 17.625 -2.59375 C 16.820312 -1.800781 15.734375 -1.109375 14.359375 -0.515625 C 12.992188 0.0664062 11.257812 0.359375 9.15625 0.359375 Z M 9.15625 0.359375 "/></g></g></g><g fill="#231f20" fill-opacity="1"><g transform="translate(147.2029, 195.749987)"><g><path d="M 5.625 0.359375 C 4.21875 0.359375 3.164062 -0.015625 2.46875 -0.765625 C 1.78125 -1.515625 1.4375 -2.5 1.4375 -3.71875 C 1.4375 -4.226562 1.484375 -4.835938 1.578125 -5.546875 C 1.679688 -6.265625 1.816406 -7.03125 1.984375 -7.84375 L 3.328125 -14.9375 L 8.21875 -14.9375 L 6.40625 -5.28125 C 6.363281 -5.132812 6.328125 -4.972656 6.296875 -4.796875 C 6.273438 -4.628906 6.265625 -4.445312 6.265625 -4.25 C 6.265625 -3.800781 6.351562 -3.375 6.53125 -2.96875 C 6.71875 -2.570312 7.066406 -2.375 7.578125 -2.375 C 8.304688 -2.375 9.023438 -2.875 9.734375 -3.875 C 10.453125 -4.875 11.1875 -6.34375 11.9375 -8.28125 L 13.765625 -7.234375 C 13.359375 -6.117188 12.894531 -5.097656 12.375 -4.171875 C 11.863281 -3.242188 11.273438 -2.441406 10.609375 -1.765625 C 9.953125 -1.097656 9.210938 -0.578125 8.390625 -0.203125 C 7.578125 0.171875 6.65625 0.359375 5.625 0.359375 Z M 6.109375 -16.828125 C 5.453125 -16.828125 4.9375 -17.023438 4.5625 -17.421875 C 4.1875 -17.816406 4 -18.3125 4 -18.90625 C 4 -19.738281 4.296875 -20.4375 4.890625 -21 C 5.492188 -21.570312 6.210938 -21.859375 7.046875 -21.859375 C 7.679688 -21.859375 8.1875 -21.65625 8.5625 -21.25 C 8.9375 -20.84375 9.125 -20.351562 9.125 -19.78125 C 9.125 -19.394531 9.046875 -19.023438 8.890625 -18.671875 C 8.742188 -18.316406 8.535156 -18.003906 8.265625 -17.734375 C 8.003906 -17.472656 7.691406 -17.253906 7.328125 -17.078125 C 6.960938 -16.910156 6.554688 -16.828125 6.109375 -16.828125 Z M 6.109375 -16.828125 "/></g></g></g><g fill="#231f20" fill-opacity="1"><g transform="translate(155.840626, 195.749987)"><g><path d="M 5.859375 0.359375 C 4.335938 0.359375 3.191406 -0.0820312 2.421875 -0.96875 C 1.660156 -1.851562 1.28125 -3.078125 1.28125 -4.640625 C 1.28125 -6.128906 1.53125 -7.519531 2.03125 -8.8125 C 2.53125 -10.101562 3.191406 -11.226562 4.015625 -12.1875 C 4.835938 -13.144531 5.769531 -13.898438 6.8125 -14.453125 C 7.863281 -15.015625 8.921875 -15.296875 9.984375 -15.296875 C 10.734375 -15.296875 11.351562 -15.175781 11.84375 -14.9375 C 12.332031 -14.707031 12.726562 -14.460938 13.03125 -14.203125 L 13.15625 -14.9375 L 18.046875 -14.9375 L 16.21875 -5.28125 C 16.175781 -5.082031 16.144531 -4.898438 16.125 -4.734375 C 16.101562 -4.566406 16.09375 -4.394531 16.09375 -4.21875 C 16.09375 -3.664062 16.207031 -3.238281 16.4375 -2.9375 C 16.675781 -2.644531 17.007812 -2.5 17.4375 -2.5 C 18.1875 -2.5 18.90625 -2.976562 19.59375 -3.9375 C 20.289062 -4.894531 21.015625 -6.34375 21.765625 -8.28125 L 23.578125 -7.234375 C 23.203125 -6.273438 22.773438 -5.335938 22.296875 -4.421875 C 21.828125 -3.503906 21.265625 -2.691406 20.609375 -1.984375 C 19.960938 -1.273438 19.210938 -0.707031 18.359375 -0.28125 C 17.515625 0.144531 16.523438 0.359375 15.390625 0.359375 C 14.753906 0.359375 14.21875 0.269531 13.78125 0.09375 C 13.34375 -0.0703125 12.972656 -0.304688 12.671875 -0.609375 C 12.367188 -0.910156 12.128906 -1.257812 11.953125 -1.65625 C 11.773438 -2.0625 11.617188 -2.515625 11.484375 -3.015625 C 10.804688 -2.003906 10.015625 -1.1875 9.109375 -0.5625 C 8.203125 0.0507812 7.117188 0.359375 5.859375 0.359375 Z M 7.515625 -2.40625 C 7.941406 -2.40625 8.375 -2.59375 8.8125 -2.96875 C 9.25 -3.351562 9.675781 -3.890625 10.09375 -4.578125 C 10.507812 -5.273438 10.898438 -6.09375 11.265625 -7.03125 C 11.628906 -7.976562 11.945312 -8.992188 12.21875 -10.078125 L 12.515625 -11.578125 C 12.472656 -11.691406 12.320312 -11.878906 12.0625 -12.140625 C 11.8125 -12.410156 11.40625 -12.546875 10.84375 -12.546875 C 10.289062 -12.546875 9.726562 -12.300781 9.15625 -11.8125 C 8.59375 -11.320312 8.085938 -10.679688 7.640625 -9.890625 C 7.191406 -9.097656 6.820312 -8.21875 6.53125 -7.25 C 6.25 -6.28125 6.109375 -5.300781 6.109375 -4.3125 C 6.109375 -3.65625 6.238281 -3.171875 6.5 -2.859375 C 6.769531 -2.554688 7.109375 -2.40625 7.515625 -2.40625 Z M 7.515625 -2.40625 "/></g></g></g><g fill="#231f20" fill-opacity="1"><g transform="translate(174.299933, 195.749987)"><g><path d="M 5.625 0.359375 C 4.175781 0.359375 3.113281 -0.0351562 2.4375 -0.828125 C 1.769531 -1.617188 1.4375 -2.644531 1.4375 -3.90625 C 1.4375 -4.394531 1.488281 -4.976562 1.59375 -5.65625 C 1.707031 -6.34375 1.835938 -7.070312 1.984375 -7.84375 L 5.03125 -23.90625 L 9.953125 -23.90625 L 6.40625 -5.28125 C 6.3125 -4.875 6.265625 -4.46875 6.265625 -4.0625 C 6.265625 -2.9375 6.703125 -2.375 7.578125 -2.375 C 8.304688 -2.375 9.023438 -2.875 9.734375 -3.875 C 10.453125 -4.875 11.1875 -6.34375 11.9375 -8.28125 L 13.765625 -7.234375 C 12.867188 -4.835938 11.757812 -2.972656 10.4375 -1.640625 C 9.113281 -0.304688 7.507812 0.359375 5.625 0.359375 Z M 5.625 0.359375 "/></g></g></g><g fill="#231f20" fill-opacity="1"><g transform="translate(182.937658, 195.749987)"><g/></g></g><g fill="#231f20" fill-opacity="1"><g transform="translate(190.775573, 195.749987)"><g><path d="M 1.59375 0.359375 C 0.65625 0.359375 -0.0820312 0.0703125 -0.625 -0.5 C -1.164062 -1.082031 -1.4375 -1.800781 -1.4375 -2.65625 C -1.4375 -3.59375 -1.160156 -4.300781 -0.609375 -4.78125 C -0.0546875 -5.257812 0.644531 -5.5 1.5 -5.5 C 1.695312 -5.5 1.878906 -5.488281 2.046875 -5.46875 C 2.210938 -5.445312 2.363281 -5.414062 2.5 -5.375 L 2.875 -5.28125 C 2.832031 -5.175781 2.800781 -5.066406 2.78125 -4.953125 C 2.71875 -4.765625 2.6875 -4.5 2.6875 -4.15625 C 2.6875 -3.625 2.878906 -3.359375 3.265625 -3.359375 C 3.492188 -3.359375 3.710938 -3.503906 3.921875 -3.796875 C 4.140625 -4.097656 4.378906 -4.664062 4.640625 -5.5 L 9.859375 -22.40625 L 14.84375 -22.40625 L 15.296875 -6.40625 L 23.265625 -22.40625 L 28.515625 -22.40625 L 25.28125 -5.3125 C 25.113281 -4.414062 25.113281 -3.707031 25.28125 -3.1875 C 25.445312 -2.664062 25.851562 -2.40625 26.5 -2.40625 C 27.375 -2.40625 28.175781 -2.894531 28.90625 -3.875 C 29.644531 -4.851562 30.390625 -6.320312 31.140625 -8.28125 L 32.953125 -7.234375 C 32.703125 -6.484375 32.40625 -5.757812 32.0625 -5.0625 C 31.71875 -4.375 31.300781 -3.675781 30.8125 -2.96875 C 30.132812 -1.925781 29.296875 -1.109375 28.296875 -0.515625 C 27.304688 0.0664062 26.109375 0.359375 24.703125 0.359375 C 23.253906 0.359375 22.132812 -0.03125 21.34375 -0.8125 C 20.550781 -1.59375 20.15625 -2.632812 20.15625 -3.9375 C 20.15625 -4.445312 20.191406 -5 20.265625 -5.59375 C 20.347656 -6.195312 20.472656 -6.945312 20.640625 -7.84375 L 21.859375 -14.296875 L 14.78125 0 L 10.46875 0 L 10.046875 -14.90625 L 6.71875 -4.25 C 6.207031 -2.550781 5.539062 -1.359375 4.71875 -0.671875 C 3.894531 0.015625 2.851562 0.359375 1.59375 0.359375 Z M 1.59375 0.359375 "/></g></g></g><g fill="#231f20" fill-opacity="1"><g transform="translate(218.608575, 195.749987)"><g><path d="M 9.34375 0.359375 C 6.882812 0.359375 4.953125 -0.207031 3.546875 -1.34375 C 2.140625 -2.476562 1.4375 -4.078125 1.4375 -6.140625 C 1.4375 -7.484375 1.671875 -8.710938 2.140625 -9.828125 C 2.609375 -10.953125 3.25 -11.921875 4.0625 -12.734375 C 4.875 -13.546875 5.820312 -14.175781 6.90625 -14.625 C 8 -15.070312 9.175781 -15.296875 10.4375 -15.296875 C 12.164062 -15.296875 13.472656 -14.898438 14.359375 -14.109375 C 15.242188 -13.316406 15.6875 -12.335938 15.6875 -11.171875 C 15.6875 -10.421875 15.519531 -9.722656 15.1875 -9.078125 C 14.851562 -8.441406 14.363281 -7.894531 13.71875 -7.4375 C 13.082031 -6.976562 12.300781 -6.617188 11.375 -6.359375 C 10.445312 -6.109375 9.394531 -5.984375 8.21875 -5.984375 C 7.90625 -5.984375 7.601562 -5.988281 7.3125 -6 C 7.019531 -6.007812 6.679688 -6.023438 6.296875 -6.046875 C 6.367188 -4.703125 6.785156 -3.675781 7.546875 -2.96875 C 8.316406 -2.269531 9.394531 -1.921875 10.78125 -1.921875 C 11.675781 -1.921875 12.546875 -2.09375 13.390625 -2.4375 C 14.234375 -2.789062 15.007812 -3.257812 15.71875 -3.84375 C 16.4375 -4.4375 17.078125 -5.117188 17.640625 -5.890625 C 18.210938 -6.660156 18.679688 -7.457031 19.046875 -8.28125 L 20.859375 -7.234375 C 20.566406 -6.460938 20.125 -5.632812 19.53125 -4.75 C 18.945312 -3.863281 18.191406 -3.039062 17.265625 -2.28125 C 16.335938 -1.53125 15.222656 -0.898438 13.921875 -0.390625 C 12.617188 0.109375 11.09375 0.359375 9.34375 0.359375 Z M 7.390625 -8.09375 C 8.117188 -8.09375 8.757812 -8.1875 9.3125 -8.375 C 9.863281 -8.570312 10.332031 -8.828125 10.71875 -9.140625 C 11.101562 -9.460938 11.390625 -9.832031 11.578125 -10.25 C 11.773438 -10.664062 11.875 -11.097656 11.875 -11.546875 C 11.875 -11.992188 11.753906 -12.34375 11.515625 -12.59375 C 11.285156 -12.851562 10.957031 -12.984375 10.53125 -12.984375 C 9.65625 -12.984375 8.820312 -12.546875 8.03125 -11.671875 C 7.238281 -10.804688 6.707031 -9.613281 6.4375 -8.09375 Z M 7.390625 -8.09375 "/></g></g></g><g fill="#231f20" fill-opacity="1"><g transform="translate(234.348549, 195.749987)"><g><path d="M 5.890625 0.359375 C 4.367188 0.359375 3.21875 -0.078125 2.4375 -0.953125 C 1.664062 -1.828125 1.28125 -3.003906 1.28125 -4.484375 C 1.28125 -5.972656 1.53125 -7.375 2.03125 -8.6875 C 2.53125 -10 3.1875 -11.144531 4 -12.125 C 4.8125 -13.101562 5.742188 -13.875 6.796875 -14.4375 C 7.859375 -15.007812 8.929688 -15.296875 10.015625 -15.296875 C 10.765625 -15.296875 11.378906 -15.175781 11.859375 -14.9375 C 12.335938 -14.707031 12.726562 -14.460938 13.03125 -14.203125 L 14.875 -23.90625 L 19.78125 -23.90625 L 16.25 -5.28125 C 16.164062 -4.851562 16.125 -4.4375 16.125 -4.03125 C 16.125 -2.925781 16.5625 -2.375 17.4375 -2.375 C 18.144531 -2.375 18.851562 -2.875 19.5625 -3.875 C 20.28125 -4.875 21.015625 -6.34375 21.765625 -8.28125 L 23.578125 -7.234375 C 23.171875 -6.140625 22.710938 -5.128906 22.203125 -4.203125 C 21.691406 -3.273438 21.109375 -2.472656 20.453125 -1.796875 C 19.804688 -1.128906 19.070312 -0.601562 18.25 -0.21875 C 17.4375 0.164062 16.515625 0.359375 15.484375 0.359375 C 14.265625 0.359375 13.3125 0.0664062 12.625 -0.515625 C 11.945312 -1.109375 11.535156 -1.882812 11.390625 -2.84375 C 10.734375 -1.84375 9.96875 -1.054688 9.09375 -0.484375 C 8.21875 0.078125 7.148438 0.359375 5.890625 0.359375 Z M 7.515625 -2.40625 C 7.941406 -2.40625 8.375 -2.597656 8.8125 -2.984375 C 9.25 -3.378906 9.675781 -3.914062 10.09375 -4.59375 C 10.507812 -5.28125 10.90625 -6.097656 11.28125 -7.046875 C 11.65625 -8.003906 11.976562 -9.023438 12.25 -10.109375 L 12.546875 -11.578125 C 12.523438 -11.648438 12.472656 -11.738281 12.390625 -11.84375 C 12.316406 -11.945312 12.21875 -12.050781 12.09375 -12.15625 C 11.96875 -12.257812 11.800781 -12.347656 11.59375 -12.421875 C 11.394531 -12.503906 11.15625 -12.546875 10.875 -12.546875 C 10.320312 -12.546875 9.765625 -12.300781 9.203125 -11.8125 C 8.640625 -11.320312 8.125 -10.679688 7.65625 -9.890625 C 7.195312 -9.097656 6.820312 -8.21875 6.53125 -7.25 C 6.25 -6.28125 6.109375 -5.300781 6.109375 -4.3125 C 6.109375 -3.65625 6.238281 -3.171875 6.5 -2.859375 C 6.769531 -2.554688 7.109375 -2.40625 7.515625 -2.40625 Z M 7.515625 -2.40625 "/></g></g></g><g fill="#231f20" fill-opacity="1"><g transform="translate(252.807856, 195.749987)"><g><path d="M 5.625 0.359375 C 4.21875 0.359375 3.164062 -0.015625 2.46875 -0.765625 C 1.78125 -1.515625 1.4375 -2.5 1.4375 -3.71875 C 1.4375 -4.226562 1.484375 -4.835938 1.578125 -5.546875 C 1.679688 -6.265625 1.816406 -7.03125 1.984375 -7.84375 L 3.328125 -14.9375 L 8.21875 -14.9375 L 6.40625 -5.28125 C 6.363281 -5.132812 6.328125 -4.972656 6.296875 -4.796875 C 6.273438 -4.628906 6.265625 -4.445312 6.265625 -4.25 C 6.265625 -3.800781 6.351562 -3.375 6.53125 -2.96875 C 6.71875 -2.570312 7.066406 -2.375 7.578125 -2.375 C 8.304688 -2.375 9.023438 -2.875 9.734375 -3.875 C 10.453125 -4.875 11.1875 -6.34375 11.9375 -8.28125 L 13.765625 -7.234375 C 13.359375 -6.117188 12.894531 -5.097656 12.375 -4.171875 C 11.863281 -3.242188 11.273438 -2.441406 10.609375 -1.765625 C 9.953125 -1.097656 9.210938 -0.578125 8.390625 -0.203125 C 7.578125 0.171875 6.65625 0.359375 5.625 0.359375 Z M 6.109375 -16.828125 C 5.453125 -16.828125 4.9375 -17.023438 4.5625 -17.421875 C 4.1875 -17.816406 4 -18.3125 4 -18.90625 C 4 -19.738281 4.296875 -20.4375 4.890625 -21 C 5.492188 -21.570312 6.210938 -21.859375 7.046875 -21.859375 C 7.679688 -21.859375 8.1875 -21.65625 8.5625 -21.25 C 8.9375 -20.84375 9.125 -20.351562 9.125 -19.78125 C 9.125 -19.394531 9.046875 -19.023438 8.890625 -18.671875 C 8.742188 -18.316406 8.535156 -18.003906 8.265625 -17.734375 C 8.003906 -17.472656 7.691406 -17.253906 7.328125 -17.078125 C 6.960938 -16.910156 6.554688 -16.828125 6.109375 -16.828125 Z M 6.109375 -16.828125 "/></g></g></g><g fill="#231f20" fill-opacity="1"><g transform="translate(261.445581, 195.749987)"><g><path d="M 5.859375 0.359375 C 4.335938 0.359375 3.191406 -0.0820312 2.421875 -0.96875 C 1.660156 -1.851562 1.28125 -3.078125 1.28125 -4.640625 C 1.28125 -6.128906 1.53125 -7.519531 2.03125 -8.8125 C 2.53125 -10.101562 3.191406 -11.226562 4.015625 -12.1875 C 4.835938 -13.144531 5.769531 -13.898438 6.8125 -14.453125 C 7.863281 -15.015625 8.921875 -15.296875 9.984375 -15.296875 C 10.734375 -15.296875 11.351562 -15.175781 11.84375 -14.9375 C 12.332031 -14.707031 12.726562 -14.460938 13.03125 -14.203125 L 13.15625 -14.9375 L 18.046875 -14.9375 L 16.21875 -5.28125 C 16.175781 -5.082031 16.144531 -4.898438 16.125 -4.734375 C 16.101562 -4.566406 16.09375 -4.394531 16.09375 -4.21875 C 16.09375 -3.664062 16.207031 -3.238281 16.4375 -2.9375 C 16.675781 -2.644531 17.007812 -2.5 17.4375 -2.5 C 18.1875 -2.5 18.90625 -2.976562 19.59375 -3.9375 C 20.289062 -4.894531 21.015625 -6.34375 21.765625 -8.28125 L 23.578125 -7.234375 C 23.203125 -6.273438 22.773438 -5.335938 22.296875 -4.421875 C 21.828125 -3.503906 21.265625 -2.691406 20.609375 -1.984375 C 19.960938 -1.273438 19.210938 -0.707031 18.359375 -0.28125 C 17.515625 0.144531 16.523438 0.359375 15.390625 0.359375 C 14.753906 0.359375 14.21875 0.269531 13.78125 0.09375 C 13.34375 -0.0703125 12.972656 -0.304688 12.671875 -0.609375 C 12.367188 -0.910156 12.128906 -1.257812 11.953125 -1.65625 C 11.773438 -2.0625 11.617188 -2.515625 11.484375 -3.015625 C 10.804688 -2.003906 10.015625 -1.1875 9.109375 -0.5625 C 8.203125 0.0507812 7.117188 0.359375 5.859375 0.359375 Z M 7.515625 -2.40625 C 7.941406 -2.40625 8.375 -2.59375 8.8125 -2.96875 C 9.25 -3.351562 9.675781 -3.890625 10.09375 -4.578125 C 10.507812 -5.273438 10.898438 -6.09375 11.265625 -7.03125 C 11.628906 -7.976562 11.945312 -8.992188 12.21875 -10.078125 L 12.515625 -11.578125 C 12.472656 -11.691406 12.320312 -11.878906 12.0625 -12.140625 C 11.8125 -12.410156 11.40625 -12.546875 10.84375 -12.546875 C 10.289062 -12.546875 9.726562 -12.300781 9.15625 -11.8125 C 8.59375 -11.320312 8.085938 -10.679688 7.640625 -9.890625 C 7.191406 -9.097656 6.820312 -8.21875 6.53125 -7.25 C 6.25 -6.28125 6.109375 -5.300781 6.109375 -4.3125 C 6.109375 -3.65625 6.238281 -3.171875 6.5 -2.859375 C 6.769531 -2.554688 7.109375 -2.40625 7.515625 -2.40625 Z M 7.515625 -2.40625 "/></g></g></g></svg>